<?xml version="1.0" encoding="utf-8"?>

<!-- License Agreement at http://iconmonstr.com/license/ -->

<!DOCTYPE svg PUBLIC "-//W3C//DTD SVG 1.1//EN" "http://www.w3.org/Graphics/SVG/1.1/DTD/svg11.dtd">
<svg version="1.1" xmlns="http://www.w3.org/2000/svg" xmlns:xlink="http://www.w3.org/1999/xlink" x="0px" y="0px"
	 width="512px" height="512px" viewBox="0 0 512 512" enable-background="new 0 0 512 512" xml:space="preserve">
<path id="wrench-5-icon" d="M106.091,172.767L56.02,122.698c-13.069,37.793-4.522,81.4,25.653,111.578
	c23.18,23.181,54.29,33.595,84.599,31.253c16.022-1.237,31.782,4.6,43.146,15.963L375.02,447.094
	c19.876,19.876,52.103,19.876,71.979-0.002c19.876-19.875,19.878-52.101,0.001-71.978L281.397,209.511
	c-11.352-11.352-17.199-27.139-15.963-43.146c2.342-30.309-8.073-61.416-31.254-84.597c-6.376-6.378-13.357-11.777-20.753-16.222
	L106.091,172.767z M429.504,407.997c0,11.588-9.393,20.979-20.978,20.979c-11.583,0-20.976-9.391-20.976-20.977
	c0.001-11.585,9.393-20.977,20.977-20.978C420.112,387.021,429.505,396.414,429.504,407.997z M218.953,180.527l-52.551,52.552
	l-44.055-44.056l52.551-52.551L218.953,180.527z M202.932,182.177l-13.075,13.075l-29.273-29.272l13.076-13.076L202.932,182.177z
	 M151.593,174.97l-13.076,13.076l29.273,29.271l13.075-13.075L151.593,174.97z M194.231,56.472l-49.667,49.666l-41.407-41.406
	c26.653-15.555,59.632-19.549,90.86-8.334C194.089,56.423,194.16,56.447,194.231,56.472z"/>
</svg>
