<?xml version="1.0" encoding="utf-8"?>

<!-- License Agreement at http://iconmonstr.com/license/ -->

<!DOCTYPE svg PUBLIC "-//W3C//DTD SVG 1.1//EN" "http://www.w3.org/Graphics/SVG/1.1/DTD/svg11.dtd">
<svg version="1.1" xmlns="http://www.w3.org/2000/svg" xmlns:xlink="http://www.w3.org/1999/xlink" x="0px" y="0px"
	 width="512px" height="512px" viewBox="0 0 512 512" enable-background="new 0 0 512 512" xml:space="preserve">
<path id="beer-10-icon" d="M398.062,307.374c-25.827,20.73-84.273,32.61-152.295,30.107
	c-66.649-2.448-114.762-17.443-132.028-32.104c-1.306-23.805-1.744-48.865-1.292-73.622c-8.935-5.235-13.445-16.722-13.445-27.149
	c0-12.461,6.574-21.843,15.26-17.284c8.687,4.559-0.002,0.007,0,0.01s48.447,27.375,149.46,27.375
	c41.917,0,97.131-5.638,134.054-25.449c0,0,0-0.003,0-0.001c16.857-8.767,22.78,32.287,1.725,44.48
	C399.904,258.541,399.419,283.609,398.062,307.374z M116.55,159.413c3.437-34.201,8.96-64.076,16.65-84.156
	c32.797-33.716,212.793-33.636,245.514,0c7.817,20.417,13.399,50.963,16.82,85.889c-26.98,19.533-83.885,30.601-149.767,28.176
	C182.445,186.996,135.852,173.345,116.55,159.413z M166.78,93.044c0,7.491,40.487,13.565,90.43,13.565s90.429-6.074,90.429-13.565
	s-40.486-13.565-90.429-13.565S166.78,85.553,166.78,93.044z M396.304,338.192c-36.776,19.115-90.845,24.674-132.582,24.674
	c-47.972,0-104.154-5.428-147.714-26.466c-16.159-7.804-18.007,30.398,5.457,42.603c3.603,21.053,8.245,38.378,13.905,49.827
	c39.358,44.193,201.757,44.259,241.171,0c5.467-11.054,9.984-27.586,13.53-47.661C413.968,369.295,412.272,330.81,396.304,338.192z"
	/>
</svg>
