<?xml version="1.0" encoding="utf-8"?>

<!-- License Agreement at http://iconmonstr.com/license/ -->

<!DOCTYPE svg PUBLIC "-//W3C//DTD SVG 1.1//EN" "http://www.w3.org/Graphics/SVG/1.1/DTD/svg11.dtd">
<svg version="1.1" xmlns="http://www.w3.org/2000/svg" xmlns:xlink="http://www.w3.org/1999/xlink" x="0px" y="0px"
	 width="512px" height="512px" viewBox="0 0 512 512" style="enable-background:new 0 0 512 512;" xml:space="preserve">
<path id="flask-5-icon" d="M234.719,127.088c0-9.438,7.651-17.088,17.087-17.088h104.663c9.436,0,17.087,7.65,17.087,17.088
	s-7.651,17.087-17.087,17.087H251.806C242.37,144.175,234.719,136.525,234.719,127.088z M401.501,462
	c26.37,0,43.722-27.599,32.297-51.365l-55.404-115.224c-15.417-32.064-23.421-67.185-23.421-102.761v-22.844H320.99
	c0,24.208-4.089,76.578,26.604,140.413c30.79,64.035,42.36,88.569,48.579,101.486c6.926,14.387-12.83,21.935-19.515,7.955
	l-60.559-127.11h-47.662c21.682-54.465,18.798-98.5,18.798-122.744h-33.935v22.845c0,35.575-8.004,70.695-23.421,102.759
	l-55.403,115.226C163.051,434.401,180.406,462,206.775,462H401.501z M155.531,84.175h104.661c9.437,0,17.088-7.649,17.088-17.087
	S269.629,50,260.192,50H155.531c-9.437,0-17.088,7.65-17.088,17.088S146.095,84.175,155.531,84.175z M161.532,367.824h-40.075
	c-6.295,0-10.424-6.594-7.701-12.246c6.226-12.922,19.863-41.332,50.649-105.361c30.085-62.569,26.556-113.596,26.556-140.411
	h-33.935v22.846c0,35.575-8.005,70.695-23.421,102.757L78.203,350.635C66.775,374.4,84.131,402,110.5,402h34.839L161.532,367.824z"
	/>
</svg>
