<?xml version="1.0" encoding="utf-8"?>

<!-- License Agreement at http://iconmonstr.com/license/ -->

<!DOCTYPE svg PUBLIC "-//W3C//DTD SVG 1.1//EN" "http://www.w3.org/Graphics/SVG/1.1/DTD/svg11.dtd">
<svg version="1.1" xmlns="http://www.w3.org/2000/svg" xmlns:xlink="http://www.w3.org/1999/xlink" x="0px" y="0px"
	 width="512px" height="512px" viewBox="0 0 512 512" enable-background="new 0 0 512 512" xml:space="preserve">
<path id="christmas-hat-icon" d="M313.055,324.444c10.3,0,19.001,12.01,19.001,26.223c0,14.215-8.701,26.223-19.001,26.223H99.001
	c-10.3,0-19.001-12.008-19.001-26.223c0-14.213,8.702-26.223,19.002-26.223H313.055z M313.055,294.444H99.002
	C71.938,294.444,50,319.616,50,350.667s21.938,56.223,49.001,56.223h214.054c27.062,0,49.001-25.172,49.001-56.223
	S340.117,294.444,313.055,294.444z M414.75,186.903c12.142,0,21.986,9.844,21.986,21.986s-9.845,21.986-21.986,21.986
	c-12.143,0-21.987-9.844-21.987-21.986S402.607,186.903,414.75,186.903z M414.75,161.64c-26.054,0-47.25,21.195-47.25,47.25
	c0,26.053,21.196,47.25,47.25,47.25S462,234.942,462,208.89C462,182.835,440.804,161.64,414.75,161.64z M348.322,197.403
	c2.244-14.268,8.986-26.057,18.729-35.869c-52.954-38.18-95.283-56.424-128.496-56.424c-70,0-120,59.5-147.5,169.334h229
	c-8.869-18.305-15-37.832-17.327-57.43c-11.506-1.959-32.381,0.182-42.672,3.43C281.055,200.556,320.515,196.571,348.322,197.403z"
	/>
</svg>
