<?xml version="1.0" encoding="utf-8"?>

<!-- License Agreement at http://iconmonstr.com/license/ -->

<!DOCTYPE svg PUBLIC "-//W3C//DTD SVG 1.1//EN" "http://www.w3.org/Graphics/SVG/1.1/DTD/svg11.dtd">
<svg version="1.1" xmlns="http://www.w3.org/2000/svg" xmlns:xlink="http://www.w3.org/1999/xlink" x="0px" y="0px"
	 width="512px" height="512px" viewBox="0 0 512 512" enable-background="new 0 0 512 512" xml:space="preserve">
<path id="copy-3-icon" d="M50,360.138V50.001h310.277l0.059,141.861h-90.751v-40h50.692V90.001H90v230.137h61.723v-51.609h40
	v91.562L50,360.138z M462,268.528h-40v91.562h40V268.528z M390.336,191.862H422v46.666h40v-86.666h-71.664V191.862z
	 M239.585,421.999h-47.862v-31.908h-40v71.908h87.862V421.999z M422,390.091v31.908h-31.664v40H462v-71.908H422z M239.585,151.862
	h-87.862v86.666h40v-46.666h47.862V151.862z M360.336,461.999v-40h-90.751v40H360.336z"/>
</svg>
