<?xml version="1.0" encoding="utf-8"?>

<!-- License Agreement at http://iconmonstr.com/license/ -->

<!DOCTYPE svg PUBLIC "-//W3C//DTD SVG 1.1//EN" "http://www.w3.org/Graphics/SVG/1.1/DTD/svg11.dtd">
<svg version="1.1" xmlns="http://www.w3.org/2000/svg" xmlns:xlink="http://www.w3.org/1999/xlink" x="0px" y="0px"
	 width="512px" height="512px" viewBox="0 0 512 512" style="enable-background:new 0 0 512 512;" xml:space="preserve">
<path id="calculator-6-icon" d="M376,90v332H136V90H376z M416,50H96v412h320V50z M209.241,359.438h-43.207V393.5h43.207V359.438z
	 M209.241,302.071h-43.207v34.062h43.207V302.071z M209.241,244.706h-43.207v34.063h43.207V244.706z M277.807,359.438h-43.205V393.5
	h43.205V359.438z M277.807,302.071h-43.205v34.062h43.205V302.071z M277.807,244.706h-43.205v34.063h43.205V244.706z
	 M346.005,302.071h-43.206V393.5h43.206V302.071z M346.005,244.706h-43.206v34.063h43.206V244.706z M166.034,120.5v97.354h179.971
	V120.5H166.034z M238.395,193.469h-10.386v-36.387h-0.142l-8.761,4.169l-1.766-8.055l12.151-5.652h8.902V193.469z M281.037,193.469
	h-32.57v-6.5c13.1-11.852,20.807-18.147,20.984-24.871c0-7.837-9.65-8.808-17.381-2.895l-3.037-7.701
	c10.324-7.796,31.156-6.882,31.156,9.68c0,11.712-16.461,23.455-16.461,23.455h17.309V193.469z M302.547,194.246
	c-5.936,0-10.951-1.555-13.637-3.251l2.189-8.054c1.908,0.988,6.289,2.826,10.67,2.826c5.58,0,8.406-2.686,8.406-6.146
	c0-4.522-4.521-6.572-9.255-6.572h-4.381v-7.7h4.169c3.604-0.07,8.195-1.413,8.195-5.299c0-2.755-2.26-4.804-6.782-4.804
	c-3.745,0-7.7,1.625-9.609,2.755l-2.189-7.771c2.755-1.767,8.266-3.462,14.2-3.462c9.821,0,15.262,5.157,15.262,11.445
	c0,4.875-2.756,8.69-8.408,10.669v0.142c5.511,0.988,9.963,5.157,9.963,11.162C321.34,188.311,314.203,194.246,302.547,194.246z"/>
</svg>
